<?xml version="1.0" standalone="no"?><!DOCTYPE svg PUBLIC "-//W3C//DTD SVG 1.1//EN" "http://www.w3.org/Graphics/SVG/1.1/DTD/svg11.dtd"><svg t="1595338295249" class="icon" viewBox="0 0 1024 1024" version="1.1" xmlns="http://www.w3.org/2000/svg" p-id="1754" xmlns:xlink="http://www.w3.org/1999/xlink" width="128" height="128"><defs><style type="text/css"></style></defs><path d="M170.996 125.72c35.822 11.49 82.282 9.983 139.524-5.643 59.517-16.247 119.876-44.842 181.082-85.96a36 36 0 0 1 39.513-0.418c66.49 42.653 127.344 71.386 182.35 86.373 53.044 14.454 100.03 15.98 141.384 5.11C877.674 119.184 900 136.401 900 160v435.61c0 183.2-128.142 341.438-307.341 379.523-22.62 4.807-45.702 11.141-69.248 19.01a36 36 0 0 1-22.736 0.03c-23.555-7.807-46.622-14.101-69.202-18.892C252.211 937.25 124 778.981 124 595.73V160c0-24.4 23.761-41.732 46.996-34.28zM448.39 632.514v0.001L337.21 509.8c-11.808-12.24-29.03-9.935-40.723 2.425l-27.31 28.872c-2.903 3.069-2.903 8.012 0 11.081l132.025 144.484 0.051-0.055 25.806 27.283 0.211 0.22c11.809 12.24 30.86 12.14 42.553-0.22l285.943-312.967c2.903-3.069 2.903-8.012 0-11.081l-29.082-30.305c-11.809-12.24-29.299-10.927-40.99 1.433L448.39 632.514z" p-id="1755" fill="#d81e06"></path></svg>