<?xml version="1.0" standalone="no"?><!DOCTYPE svg PUBLIC "-//W3C//DTD SVG 1.1//EN" "http://www.w3.org/Graphics/SVG/1.1/DTD/svg11.dtd"><svg t="1595118444908" class="icon" viewBox="0 0 1024 1024" version="1.1" xmlns="http://www.w3.org/2000/svg" p-id="2697" xmlns:xlink="http://www.w3.org/1999/xlink" width="48" height="48"><defs><style type="text/css"></style></defs><path d="M234.666667 234.666667v53.333333a32 32 0 0 1-64 0v-85.333333c0-8.832 3.584-16.853333 9.386666-22.613334 5.76-5.802667 13.781333-9.386667 22.613334-9.386666h85.333333a32 32 0 0 1 0 64H234.666667z m618.666666-32v85.333333a32 32 0 0 1-64 0V234.666667h-53.333333a32 32 0 0 1 0-64h85.333333A32 32 0 0 1 853.333333 202.666667z m-9.386666 598.613333c-5.76 5.802667-13.781333 9.386667-22.613334 9.386667h-85.333333a32 32 0 0 1 0-64H789.333333v-53.333334a32 32 0 0 1 64 0v85.333334c0 8.832-3.584 16.853333-9.386666 22.613333zM234.666667 746.666667h53.333333a32 32 0 0 1 0 64h-85.333333A32 32 0 0 1 170.666667 778.666667v-85.333334a32 32 0 0 1 64 0V746.666667z m469.333333-298.666667h117.333333a32 32 0 0 1 0 64H704v149.333333a21.333333 21.333333 0 0 1-21.333333 21.333334H341.333333a21.333333 21.333333 0 0 1-21.333333-21.333334v-149.333333H202.666667a32 32 0 0 1 0-64H320v-128a21.333333 21.333333 0 0 1 21.333333-21.333333h341.333334a21.333333 21.333333 0 0 1 21.333333 21.333333v128z m0 0H320v64h384v-64z" fill="#000000" p-id="2698"></path></svg>