<svg width="70" height="70" xmlns="http://www.w3.org/2000/svg" xmlns:xlink="http://www.w3.org/1999/xlink" overflow="hidden"><defs><clipPath id="clip0"><path d="M605 325 675 325 675 395 605 395Z" fill-rule="evenodd" clip-rule="evenodd"/></clipPath></defs><g clip-path="url(#clip0)" transform="translate(-605 -325)"><path d="M639.95 372C633.36 372 627.968 366.6 627.968 360 627.968 353.4 633.36 348 639.95 348 646.54 348 651.932 353.4 651.932 360 651.932 366.6 646.54 372 639.95 372ZM666.91 352.5C666.311 350.3 665.413 348.2 664.314 346.3L666.811 338.8 661.119 333.1 653.63 335.6C651.633 334.5 649.536 333.6 647.339 333L643.944 326 635.956 326 632.461 333C630.264 333.6 628.167 334.5 626.27 335.6L618.781 333.1 613.09 338.8 615.586 346.3C614.488 348.3 613.589 350.4 612.99 352.6L606 356 606 364 612.99 367.5C613.589 369.7 614.488 371.8 615.586 373.7L613.09 381.2 618.781 386.9 626.27 384.4C628.267 385.5 630.364 386.4 632.561 387L636.056 394 644.044 394 647.539 387C649.736 386.4 651.833 385.5 653.73 384.4L661.219 386.9 666.91 381.2 664.414 373.7C665.513 371.7 666.411 369.6 667.01 367.4L674 363.9 674 355.9 666.91 352.5Z" fill-rule="evenodd"/></g></svg>