<svg width="51" height="50" xmlns="http://www.w3.org/2000/svg" xmlns:xlink="http://www.w3.org/1999/xlink" overflow="hidden"><defs><clipPath id="clip0"><path d="M685 31 736 31 736 81 685 81Z" fill-rule="evenodd" clip-rule="evenodd"/></clipPath><clipPath id="clip1"><path d="M685 31 735 31 735 80 685 80Z" fill-rule="evenodd" clip-rule="evenodd"/></clipPath><clipPath id="clip2"><path d="M685 31 735 31 735 80 685 80Z" fill-rule="evenodd" clip-rule="evenodd"/></clipPath><clipPath id="clip3"><path d="M685 31 735 31 735 80 685 80Z" fill-rule="evenodd" clip-rule="evenodd"/></clipPath><clipPath id="clip4"><path d="M684 31 735 31 735 80 684 80Z" fill-rule="evenodd" clip-rule="evenodd"/></clipPath></defs><g clip-path="url(#clip0)" transform="translate(-685 -31)"><g clip-path="url(#clip1)"><g clip-path="url(#clip2)"><g clip-path="url(#clip3)"><g clip-path="url(#clip4)"><path d="M704.5 34C704.884 34 705.268 34.15 705.56 34.45L724.561 53.914C725.146 54.513 725.146 55.487 724.561 56.086L705.56 75.55C704.975 76.15 704.025 76.15 703.439 75.55 702.854 74.95 702.854 73.977 703.439 73.377L721.379 55 703.439 36.623C702.853 36.023 702.853 35.05 703.439 34.45 703.732 34.15 704.116 34 704.5 34Z" stroke="#000000" stroke-width="2" stroke-miterlimit="8" fill-rule="evenodd"/></g></g></g></g></g></svg>