<?xml version="1.0" standalone="no"?><!DOCTYPE svg PUBLIC "-//W3C//DTD SVG 1.1//EN" "http://www.w3.org/Graphics/SVG/1.1/DTD/svg11.dtd"><svg t="1594718037643" class="icon" viewBox="0 0 1024 1024" version="1.1" xmlns="http://www.w3.org/2000/svg" p-id="2190" xmlns:xlink="http://www.w3.org/1999/xlink" width="48" height="48"><defs><style type="text/css"></style></defs><path d="M785.635556 436.622222c-7.49037-138.808889-122.405926-248.983704-263.016297-248.983703-143.834074 0-260.740741 115.294815-263.395555 258.465185-76.705185 28.34963-131.413333 102.21037-131.413334 188.871111 0 111.122963 90.074074 201.291852 201.291852 201.291852 48.071111 0 92.16-16.782222 126.767408-44.942223V614.58963h-89.694815l156.444444-147.152593 156.444445 147.152593h-89.694815v168.391111c30.90963 19.721481 67.697778 31.194074 107.140741 31.194074 110.08 0 199.300741-89.220741 199.30074-199.300741 0-78.032593-44.847407-145.540741-110.174814-178.251852z" p-id="2191" fill="#000000"></path></svg>